<?xml version="1.0" standalone="no"?>
<!DOCTYPE svg PUBLIC "-//W3C//DTD SVG 20010904//EN"
 "http://www.w3.org/TR/2001/REC-SVG-20010904/DTD/svg10.dtd">
<svg version="1.0" xmlns="http://www.w3.org/2000/svg"
 width="512.000000pt" height="512.000000pt" viewBox="0 0 512.000000 512.000000"
 preserveAspectRatio="xMidYMid meet">

<g transform="translate(0.000000,512.000000) scale(0.100000,-0.100000)"
fill="#000000" stroke="none">
<path d="M1556 4280 c-239 -38 -444 -147 -617 -328 -107 -112 -176 -219 -225
-352 -57 -150 -68 -216 -67 -395 0 -140 3 -172 27 -260 33 -126 108 -280 185
-381 33 -44 429 -450 881 -904 l820 -825 820 825 c452 454 848 860 881 904 77
101 152 255 185 381 24 88 27 120 27 260 1 179 -10 245 -67 395 -48 130 -118
239 -223 350 -133 140 -265 226 -433 283 -133 44 -187 52 -350 51 -133 -1
-169 -5 -253 -27 -197 -52 -398 -172 -527 -315 l-60 -67 -62 70 c-128 141
-330 262 -523 311 -112 28 -315 40 -419 24z m244 -150 c228 -24 423 -120 582
-287 60 -64 121 -152 152 -221 10 -23 22 -42 26 -42 3 0 16 21 29 47 118 242
364 432 636 490 113 24 291 20 407 -10 328 -85 579 -336 665 -665 21 -80 25
-120 26 -227 0 -144 -13 -214 -64 -346 -65 -168 -86 -192 -921 -1034 -425
-429 -775 -780 -778 -780 -13 0 -1536 1547 -1581 1605 -68 90 -125 208 -155
326 -35 133 -37 306 -5 439 90 376 408 659 791 705 36 4 70 8 76 9 7 0 58 -4
114 -9z"/>
</g>
</svg>
